<?xml version="1.0" encoding="utf-8"?>
<!-- Generator: Adobe Illustrator 27.6.1, SVG Export Plug-In . SVG Version: 6.00 Build 0)  -->
<svg version="1.1" xmlns="http://www.w3.org/2000/svg" xmlns:xlink="http://www.w3.org/1999/xlink" x="0px" y="0px"
	 viewBox="0 0 512 512" style="enable-background:new 0 0 512 512;" xml:space="preserve">
<style type="text/css">
	.st0{fill:#46CBB2;}
	.st1{font-family:'Poppins-Bold';}
	.st2{font-size:114.128px;}
	.st3{fill:none;stroke:#55C0AC;stroke-width:20;stroke-linecap:round;stroke-miterlimit:10;}
	.st4{fill:#55C0AC;}
	.st5{fill:#55C0AC;stroke:#55C0AC;stroke-miterlimit:10;}
</style>
<g id="Layer_1">
</g>
<g id="Layer_2">
	<g>
		<text transform="matrix(1 0 0 1 4.9771 402.8379)" class="st0 st1 st2">FlikNook</text>
	</g>
	<g>
		<g>
			<path class="st0" d="M309.99,75.75h133.03v37.97h-87.75v46.36h74.92v37.97h-74.92v77.77h-45.28V75.75z"/>
		</g>
	</g>
	<path class="st3" d="M163.53,293.48c-1.9,0.09-3.81,0.14-5.73,0.14c-62.41,0-113-50.59-113-113s50.59-113,113-113
		s113,50.59,113,113c0,26.97-9.45,51.74-25.22,71.17"/>
	<circle class="st4" cx="108.91" cy="134.44" r="21.28"/>
	<circle class="st5" cx="200.31" cy="132.75" r="21.28"/>
	<circle class="st4" cx="110.91" cy="221.81" r="21.28"/>
	<circle class="st4" cx="202.06" cy="221.81" r="21.28"/>
	<circle class="st4" cx="158.25" cy="176.93" r="9.46"/>
	<line class="st3" x1="157.8" y1="293.63" x2="443.36" y2="293.61"/>
</g>
</svg>
