<?xml version="1.0" encoding="utf-8"?>
<!-- Generator: Adobe Illustrator 27.6.1, SVG Export Plug-In . SVG Version: 6.00 Build 0)  -->
<svg version="1.1" xmlns="http://www.w3.org/2000/svg" xmlns:xlink="http://www.w3.org/1999/xlink" x="0px" y="0px"
	 viewBox="0 0 512 512" style="enable-background:new 0 0 512 512;" xml:space="preserve">
<style type="text/css">
	.st0{fill:#46CBB2;}
	.st1{fill:none;stroke:#46CBB2;stroke-width:20;stroke-linecap:round;stroke-miterlimit:10;}
	.st2{fill:#46CBB2;stroke:#46CBB2;stroke-miterlimit:10;}
</style>
<g id="Layer_1">
</g>
<g id="Layer_2">
	<g>
		<g>
			<g>
				<path class="st0" d="M21.44,328.36h49.24v14.05H38.2v17.16h27.73v14.05H38.2v28.79H21.44V328.36z"/>
				<path class="st0" d="M93.9,380.37v-44.44H76.16v-13.11h34.47v58.23c0,6.97,4.48,9.23,9.19,9.23c2.61,0,5.36-0.55,8.78-1.84
					l3.7,12.29c-5.85,1.91-9.82,3.05-16.82,3.05C101.28,403.78,93.9,394.66,93.9,380.37z"/>
				<path class="st0" d="M163.17,359.15h-22.7v-13.11h39.43v56.37h-16.73V359.15z M159.67,327.01c0-6.12,4.66-10.39,11.11-10.39
					c6.45,0,11.11,4.27,11.11,10.39c0,6.15-4.66,10.22-11.11,10.22C164.32,337.24,159.67,333.17,159.67,327.01z"/>
				<path class="st0" d="M201.15,322.82h16.73v45.88h0.45l20.72-22.66h18.26l-39.43,42.19v14.18h-16.73V322.82z M224.61,376.87
					l9.62-10.4l24.89,35.95h-18.16L224.61,376.87z"/>
				<path class="st0" d="M261.11,328.36h17.18l15.58,36.81l6.34,16.27h0.39c-0.75-7.8-2.32-18.17-2.32-26.92v-26.17h15.98v74.05
					h-17.18l-15.58-36.9l-6.34-16.19h-0.39c0.75,8.19,2.32,18.11,2.32,26.82v26.27h-15.98V328.36z"/>
				<path class="st0" d="M319.95,374.26c0-18.77,13.88-29.58,28.75-29.58s28.75,10.81,28.75,29.58c0,18.71-13.87,29.52-28.75,29.52
					S319.95,392.96,319.95,374.26z M360.33,374.26c0-9.77-3.93-16.08-11.63-16.08s-11.63,6.31-11.63,16.08
					c0,9.74,3.93,16.02,11.63,16.02S360.33,384,360.33,374.26z"/>
				<path class="st0" d="M380.97,374.26c0-18.77,13.88-29.58,28.75-29.58s28.75,10.81,28.75,29.58c0,18.71-13.87,29.52-28.75,29.52
					S380.97,392.96,380.97,374.26z M421.35,374.26c0-9.77-3.93-16.08-11.63-16.08s-11.63,6.31-11.63,16.08
					c0,9.74,3.93,16.02,11.63,16.02S421.35,384,421.35,374.26z"/>
				<path class="st0" d="M445.22,322.82h16.73v45.88h0.46l20.72-22.66h18.26l-39.43,42.19v14.18h-16.73V322.82z M468.68,376.87
					l9.62-10.4l24.89,35.95h-18.16L468.68,376.87z"/>
			</g>
		</g>
	</g>
	<path class="st1" d="M170.17,290.91c-1.9,0.09-3.81,0.14-5.73,0.14c-62.41,0-113-50.59-113-113s50.59-113,113-113
		s113,50.59,113,113c0,26.97-9.45,51.74-25.22,71.17"/>
	<circle class="st0" cx="115.55" cy="135.87" r="21.28"/>
	<circle class="st2" cx="206.95" cy="134.18" r="21.28"/>
	<circle class="st0" cx="117.55" cy="223.24" r="21.28"/>
	<circle class="st0" cx="208.7" cy="223.24" r="21.28"/>
	<circle class="st0" cx="164.89" cy="178.36" r="9.46"/>
	<g>
		<g>
			<path class="st0" d="M309.99,75.75h133.03v37.97h-87.75v46.36h74.92v37.97h-74.92v77.77h-45.28V75.75z"/>
		</g>
	</g>
	<line class="st1" x1="164.44" y1="291.06" x2="450" y2="291.04"/>
</g>
</svg>
