<?xml version="1.0" encoding="utf-8"?>
<!-- Generator: Adobe Illustrator 27.9.0, SVG Export Plug-In . SVG Version: 6.00 Build 0)  -->
<svg version="1.1" id="Layer_1" xmlns="http://www.w3.org/2000/svg" xmlns:xlink="http://www.w3.org/1999/xlink" x="0px" y="0px"
	 viewBox="0 0 512 512" style="enable-background:new 0 0 512 512;" xml:space="preserve">
<style type="text/css">
	.st0{enable-background:new    ;}
	.st1{fill:#46CBB2;}
	.st2{fill:none;stroke:#55C0AC;stroke-width:20;stroke-linecap:round;stroke-miterlimit:10;}
	.st3{fill:#55C0AC;}
	.st4{fill:#55C0AC;stroke:#55C0AC;stroke-miterlimit:10;}
</style>
<g id="Layer_1_00000131328091617337192920000016962982433998143888_">
</g>
<g id="Layer_2_00000014594943592487225990000015682766815538391995_">
	<g>
		<g class="st0">
			<path class="st1" d="M64.2,322.7v15.6H31.6v16.9H56v15.2H31.6v32.4H12.1v-80.1H64.2z"/>
			<path class="st1" d="M94,318.4v84.5H74.5v-84.5H94z"/>
			<path class="st1" d="M109.6,329.5c-2.2-2-3.3-4.5-3.3-7.5c0-3,1.1-5.6,3.3-7.6c2.2-2,5-3,8.4-3c3.3,0,6.1,1,8.3,3
				c2.2,2,3.3,4.5,3.3,7.6c0,3-1.1,5.5-3.3,7.5c-2.2,2-4.9,3-8.3,3C114.5,332.5,111.7,331.5,109.6,329.5z M127.7,339.2v63.7h-19.5
				v-63.7H127.7z"/>
			<path class="st1" d="M180.7,402.8l-19.4-26.7v26.7h-19.5v-84.5h19.5v46.7l19.3-25.9h24.1l-26.5,32l26.7,31.7H180.7z"/>
			<path class="st1" d="M284,402.8h-19.5l-32.6-49.4v49.4h-19.5v-80.1h19.5l32.6,49.6v-49.6H284V402.8z"/>
			<path class="st1" d="M310.3,399.8c-5-2.7-8.9-6.5-11.8-11.4c-2.9-4.9-4.3-10.7-4.3-17.3c0-6.5,1.4-12.3,4.3-17.3
				c2.9-5,6.8-8.8,11.9-11.5c5-2.7,10.7-4,16.9-4c6.2,0,11.9,1.3,16.9,4c5,2.7,9,6.5,11.9,11.5c2.9,5,4.3,10.7,4.3,17.3
				c0,6.5-1.5,12.3-4.4,17.3c-2.9,5-6.9,8.8-12,11.5c-5.1,2.7-10.7,4-16.9,4C320.9,403.8,315.3,402.4,310.3,399.8z M336.7,382.8
				c2.6-2.7,3.9-6.7,3.9-11.8c0-5.1-1.3-9-3.8-11.8c-2.6-2.7-5.7-4.1-9.4-4.1c-3.8,0-7,1.4-9.5,4.1c-2.5,2.7-3.8,6.6-3.8,11.8
				c0,5.1,1.2,9,3.7,11.8c2.5,2.7,5.6,4.1,9.3,4.1C330.9,386.9,334.1,385.5,336.7,382.8z"/>
			<path class="st1" d="M383,399.8c-5-2.7-8.9-6.5-11.8-11.4c-2.9-4.9-4.3-10.7-4.3-17.3c0-6.5,1.4-12.3,4.3-17.3
				c2.9-5,6.8-8.8,11.9-11.5c5-2.7,10.7-4,16.9-4c6.2,0,11.9,1.3,16.9,4c5,2.7,9,6.5,11.9,11.5c2.9,5,4.3,10.7,4.3,17.3
				c0,6.5-1.5,12.3-4.4,17.3c-2.9,5-6.9,8.8-12,11.5c-5.1,2.7-10.7,4-16.9,4C393.6,403.8,388,402.4,383,399.8z M409.4,382.8
				c2.6-2.7,3.9-6.7,3.9-11.8c0-5.1-1.3-9-3.8-11.8c-2.5-2.7-5.7-4.1-9.4-4.1c-3.8,0-7,1.4-9.5,4.1c-2.5,2.7-3.8,6.6-3.8,11.8
				c0,5.1,1.2,9,3.7,11.8c2.5,2.7,5.6,4.1,9.3,4.1C403.6,386.9,406.8,385.5,409.4,382.8z"/>
			<path class="st1" d="M482.5,402.8l-19.4-26.7v26.7h-19.5v-84.5h19.5v46.7l19.3-25.9h24.1l-26.5,32l26.7,31.7H482.5z"/>
		</g>
	</g>
	<g>
		<g>
			<path class="st1" d="M310,75.8h133v38h-87.8v46.4h74.9v38h-74.9v77.8H310L310,75.8L310,75.8z"/>
		</g>
	</g>
	<path class="st2" d="M163.5,293.5c-1.9,0.1-3.8,0.1-5.7,0.1c-62.4,0-113-50.6-113-113s50.6-113,113-113s113,50.6,113,113
		c0,27-9.5,51.7-25.2,71.2"/>
	<circle class="st3" cx="108.9" cy="134.4" r="21.3"/>
	<circle class="st4" cx="200.3" cy="132.8" r="21.3"/>
	<circle class="st3" cx="110.9" cy="221.8" r="21.3"/>
	<circle class="st3" cx="202.1" cy="221.8" r="21.3"/>
	<circle class="st3" cx="158.2" cy="176.9" r="9.5"/>
	<line class="st2" x1="157.8" y1="293.6" x2="443.4" y2="293.6"/>
</g>
</svg>
