<?xml version="1.0" encoding="utf-8"?>
<!-- Generator: Adobe Illustrator 27.9.0, SVG Export Plug-In . SVG Version: 6.00 Build 0)  -->
<svg version="1.1" id="Layer_1" xmlns="http://www.w3.org/2000/svg" xmlns:xlink="http://www.w3.org/1999/xlink" x="0px" y="0px"
	 viewBox="0 0 1200 300" style="enable-background:new 0 0 1200 300;" xml:space="preserve">
<style type="text/css">
	.st0{fill:none;stroke:#56C1AE;stroke-width:20;stroke-linecap:round;stroke-miterlimit:10;}
	.st1{fill:#56C1AE;}
	.st2{fill:#56C1AE;stroke:#56C1AE;stroke-miterlimit:10;}
	.st3{enable-background:new    ;}
</style>
<path class="st0" d="M141.2,263.8c-1.9,0.1-3.8,0.1-5.7,0.1c-62.4,0-113-50.6-113-113s50.6-113,113-113s113,50.6,113,113
	c0,27-9.4,51.7-25.2,71.2"/>
<circle class="st1" cx="86.6" cy="108.8" r="21.3"/>
<circle class="st2" cx="178" cy="107.1" r="21.3"/>
<circle class="st1" cx="88.6" cy="196.1" r="21.3"/>
<circle class="st1" cx="179.8" cy="196.1" r="21.3"/>
<circle class="st1" cx="135.9" cy="151.3" r="9.5"/>
<line class="st0" x1="135.5" y1="264" x2="657" y2="263.9"/>
<g class="st3">
	<path class="st1" d="M384.7,74.3v31.6h-57.2v25.1h42.2v30.2h-42.2v56h-39.7V74.3H384.7z"/>
	<path class="st1" d="M441.2,67.2v150h-39.7v-150H441.2z"/>
	<path class="st1" d="M467.1,87.2c-4.3-3.9-6.4-8.7-6.4-14.5c0-5.9,2.1-10.9,6.4-14.8C471.3,54,477,52,484,52c6.9,0,12.5,2,16.7,5.9
		c4.3,3.9,6.4,8.9,6.4,14.8c0,5.8-2.1,10.6-6.4,14.5C496.5,91,490.9,93,484,93C477,93,471.3,91,467.1,87.2z M503.7,103.5v113.8
		h-39.7V103.5H503.7z"/>
	<path class="st1" d="M597.6,217.3l-31.4-46.6v46.6h-39.7v-150h39.7v80.9l31.4-44.6h47.6l-44.8,57.2l45.6,56.6H597.6z"/>
</g>
<g class="st3">
	<path class="st1" d="M789.9,217.7h-39.7l-52.9-79.9v79.9h-39.7V74.7h39.7l52.9,80.9V74.7h39.7V217.7z"/>
	<path class="st1" d="M835,212c-9-4.7-16.1-11.5-21.2-20.3c-5.1-8.8-7.7-19.1-7.7-31c0-11.8,2.6-22,7.8-30.8
		c5.2-8.8,12.3-15.5,21.3-20.3c9-4.7,19.2-7.1,30.5-7.1c11.4,0,21.5,2.4,30.5,7.1c9,4.7,16.1,11.5,21.3,20.3
		c5.2,8.8,7.8,19.1,7.8,30.8c0,11.8-2.6,22.1-7.8,30.9c-5.2,8.9-12.3,15.6-21.4,20.4c-9.1,4.7-19.3,7.1-30.6,7.1
		C854.1,219.1,844,216.7,835,212z M879.4,178.4c3.7-4.1,5.6-10,5.6-17.7s-1.9-13.6-5.6-17.6c-3.7-4.1-8.3-6.1-13.7-6.1
		c-5.4,0-9.9,2-13.6,6.1s-5.5,9.9-5.5,17.6c0,7.8,1.8,13.8,5.3,17.8c3.5,4.1,8,6.1,13.6,6.1C871,184.6,875.7,182.5,879.4,178.4z"/>
	<path class="st1" d="M963.9,212c-9-4.7-16.1-11.5-21.2-20.3c-5.1-8.8-7.7-19.1-7.7-31c0-11.8,2.6-22,7.8-30.8
		c5.2-8.8,12.3-15.5,21.3-20.3c9-4.7,19.2-7.1,30.5-7.1c11.4,0,21.5,2.4,30.5,7.1c9,4.7,16.1,11.5,21.3,20.3
		c5.2,8.8,7.8,19.1,7.8,30.8c0,11.8-2.6,22.1-7.8,30.9c-5.2,8.9-12.3,15.6-21.4,20.4c-9.1,4.7-19.3,7.1-30.6,7.1
		C983.1,219.1,972.9,216.7,963.9,212z M1008.3,178.4c3.7-4.1,5.6-10,5.6-17.7s-1.9-13.6-5.6-17.6c-3.7-4.1-8.3-6.1-13.7-6.1
		c-5.4,0-9.9,2-13.6,6.1s-5.5,9.9-5.5,17.6c0,7.8,1.8,13.8,5.3,17.8c3.5,4.1,8,6.1,13.6,6.1C1000,184.6,1004.6,182.5,1008.3,178.4z"
		/>
	<path class="st1" d="M1141.7,217.7l-31.4-46.6v46.6h-39.7v-150h39.7v80.9l31.4-44.6h47.6l-44.8,57.2l45.6,56.6H1141.7z"/>
</g>
</svg>
