<?xml version="1.0" encoding="utf-8"?>
<!-- Generator: Adobe Illustrator 27.6.1, SVG Export Plug-In . SVG Version: 6.00 Build 0)  -->
<svg version="1.1" xmlns="http://www.w3.org/2000/svg" xmlns:xlink="http://www.w3.org/1999/xlink" x="0px" y="0px"
	 viewBox="0 0 512 512" style="enable-background:new 0 0 512 512;" xml:space="preserve">
<style type="text/css">
	.st0{fill:#46CBB2;}
	.st1{fill:none;stroke:#46CBB2;stroke-width:20;stroke-miterlimit:10;}
	.st2{fill:#46CBB2;stroke:#46CBB2;stroke-miterlimit:10;}
</style>
<g id="Layer_1">
	<g>
		<rect x="0.5" y="0.5" width="511" height="511"/>
		<path d="M511,1v510H1V1H511 M512,0H0v512h512V0L512,0z"/>
	</g>
</g>
<g id="Layer_2">
	<g>
		<g>
			<g>
				<path class="st0" d="M21.4,328.4h49.2v14.1H38.2v17.2h27.7v14.1H38.2v28.8H21.4V328.4z"/>
				<path class="st0" d="M93.9,380.4v-44.4H76.2v-13.1h34.5V381c0,7,4.5,9.2,9.2,9.2c2.6,0,5.4-0.5,8.8-1.8l3.7,12.3
					c-5.9,1.9-9.8,3-16.8,3C101.3,403.8,93.9,394.7,93.9,380.4z"/>
				<path class="st0" d="M163.2,359.1h-22.7V346h39.4v56.4h-16.7V359.1z M159.7,327c0-6.1,4.7-10.4,11.1-10.4
					c6.4,0,11.1,4.3,11.1,10.4c0,6.2-4.7,10.2-11.1,10.2C164.3,337.2,159.7,333.2,159.7,327z"/>
				<path class="st0" d="M201.1,322.8h16.7v45.9h0.5L239,346h18.3l-39.4,42.2v14.2h-16.7V322.8z M224.6,376.9l9.6-10.4l24.9,35.9
					H241L224.6,376.9z"/>
				<path class="st0" d="M261.1,328.4h17.2l15.6,36.8l6.3,16.3h0.4c-0.8-7.8-2.3-18.2-2.3-26.9v-26.2h16v74.1h-17.2l-15.6-36.9
					l-6.3-16.2h-0.4c0.8,8.2,2.3,18.1,2.3,26.8v26.3h-16V328.4z"/>
				<path class="st0" d="M320,374.3c0-18.8,13.9-29.6,28.7-29.6s28.7,10.8,28.7,29.6c0,18.7-13.9,29.5-28.7,29.5S320,393,320,374.3z
					 M360.3,374.3c0-9.8-3.9-16.1-11.6-16.1s-11.6,6.3-11.6,16.1c0,9.7,3.9,16,11.6,16S360.3,384,360.3,374.3z"/>
				<path class="st0" d="M381,374.3c0-18.8,13.9-29.6,28.7-29.6s28.7,10.8,28.7,29.6c0,18.7-13.9,29.5-28.7,29.5S381,393,381,374.3z
					 M421.3,374.3c0-9.8-3.9-16.1-11.6-16.1s-11.6,6.3-11.6,16.1c0,9.7,3.9,16,11.6,16S421.3,384,421.3,374.3z"/>
				<path class="st0" d="M445.2,322.8h16.7v45.9h0.5l20.7-22.7h18.3l-39.4,42.2v14.2h-16.7V322.8z M468.7,376.9l9.6-10.4l24.9,35.9
					H485L468.7,376.9z"/>
			</g>
		</g>
	</g>
	<g>
		<circle class="st1" cx="164.4" cy="178.1" r="113"/>
		<rect x="164.5" y="255.6" width="119.1" height="24.9"/>
		<circle class="st0" cx="115.5" cy="135.9" r="21.3"/>
		<circle class="st2" cx="207" cy="134.2" r="21.3"/>
		<circle class="st0" cx="117.5" cy="223.2" r="21.3"/>
		<circle class="st0" cx="208.7" cy="223.2" r="21.3"/>
		<circle class="st0" cx="164.9" cy="178.4" r="9.5"/>
		<g>
			<g>
				<path class="st0" d="M310,75.8h133v38h-87.7v46.4h74.9v38h-74.9v77.8H310V75.8z"/>
			</g>
		</g>
		<line class="st1" x1="164.4" y1="291.1" x2="466.6" y2="291"/>
	</g>
</g>
</svg>
